# xmcd
#
# Track frame offsets:
#	150
#	21985
#	41268
#	59896
#	77423
#	99523
#	113239
#	132979
#	142263
#	153668
#	167619
#	177921
#	194079
#	208023
#	232448
#
# Disc length: 4440 seconds
#
# Revision: 1
# Processed by: cddbd v1.4PL0 Copyright (c) Steve Scherf et al.
# Submitted via: audiograbber 1.80.04
#
DISCID=e211560f
DTITLE=Varios Artistas - Con Poderio Nuestro Mejor Flamenco
DYEAR=2003
DGENRE=Folklore
TTITLE0=Carmen Linares - Cantares
TTITLE1=Chano Lobato - El Arriero
TTITLE2=Juana La Del Revuelo - Lo Mejore De Juan
TTITLE3=Serranito - Llegando Al Puerto
TTITLE4=Norente - A La Hora Dela Muerte
TTITLE5=Sordera - Las Fatigas Del Querer
TTITLE6=Bernada De Utrera - Todo El Mundo Nos Separa
TTITLE7=Fernanda De Utrera - No Soy De Maera
TTITLE8=Porrinas De Badajoz - Prrinas Estan Diciendo Comerme
TTITLE9=Juan Valderrama - Valderrama Mi Mutata
TTITLE10=Pepe De La Matrona - Pepe De La Matrona Despierta Divina Flor
TTITLE11=Sabica - Punta Y Tacon
TTITLE12=Caracol - Veneno Me Dejaste+by Picha_nauta
TTITLE13=Niña Delos Peines - Al Gurugú
TTITLE14=Data - Data
EXTD=
EXTT0=
EXTT1=
EXTT2=
EXTT3=
EXTT4=
EXTT5=
EXTT6=
EXTT7=
EXTT8=
EXTT9=
EXTT10=
EXTT11=
EXTT12=
EXTT13=
EXTT14=
PLAYORDER=
